<svg width="351" height="120" viewBox="0 0 351 120" fill="none" xmlns="http://www.w3.org/2000/svg">
<path d="M0.399902 89V2.6H34.6599C40.4999 2.6 45.2799 3.78 48.9999 6.14C52.7599 8.46 55.5399 11.44 57.3399 15.08C59.1799 18.72 60.0999 22.48 60.0999 26.36C60.0999 31.12 58.9599 35.16 56.6799 38.48C54.4399 41.8 51.3799 44.04 47.4999 45.2V42.2C52.9399 43.44 57.0599 46.02 59.8599 49.94C62.6999 53.86 64.1199 58.32 64.1199 63.32C64.1199 68.44 63.1399 72.92 61.1799 76.76C59.2199 80.6 56.2999 83.6 52.4199 85.76C48.5799 87.92 43.8199 89 38.1399 89H0.399902ZM15.0399 75.38H36.3399C38.8599 75.38 41.1199 74.88 43.1199 73.88C45.1199 72.84 46.6799 71.4 47.7999 69.56C48.9599 67.68 49.5399 65.46 49.5399 62.9C49.5399 60.58 49.0399 58.5 48.0399 56.66C47.0399 54.82 45.5799 53.36 43.6599 52.28C41.7399 51.16 39.4399 50.6 36.7599 50.6H15.0399V75.38ZM15.0399 37.1H34.4799C36.5599 37.1 38.4199 36.7 40.0599 35.9C41.6999 35.1 42.9999 33.92 43.9599 32.36C44.9199 30.8 45.3999 28.88 45.3999 26.6C45.3999 23.6 44.4399 21.1 42.5199 19.1C40.5999 17.1 37.9199 16.1 34.4799 16.1H15.0399V37.1Z" fill="white"/>
<path d="M72.503 81.5V0.800003H86.963V89L72.503 81.5Z" fill="white"/>
<path d="M128.756 90.8C122.276 90.8 116.616 89.34 111.776 86.42C106.936 83.5 103.176 79.48 100.496 74.36C97.8558 69.2 96.5358 63.28 96.5358 56.6C96.5358 49.8 97.8958 43.84 100.616 38.72C103.336 33.6 107.116 29.6 111.956 26.72C116.796 23.84 122.396 22.4 128.756 22.4C135.276 22.4 140.956 23.86 145.796 26.78C150.636 29.7 154.396 33.74 157.076 38.9C159.756 44.02 161.096 49.92 161.096 56.6C161.096 63.32 159.736 69.26 157.016 74.42C154.336 79.54 150.576 83.56 145.736 86.48C140.896 89.36 135.236 90.8 128.756 90.8ZM128.756 77.24C134.516 77.24 138.796 75.32 141.596 71.48C144.396 67.64 145.796 62.68 145.796 56.6C145.796 50.32 144.376 45.32 141.536 41.6C138.696 37.84 134.436 35.96 128.756 35.96C124.876 35.96 121.676 36.84 119.156 38.6C116.676 40.32 114.836 42.74 113.636 45.86C112.436 48.94 111.836 52.52 111.836 56.6C111.836 62.88 113.256 67.9 116.096 71.66C118.976 75.38 123.196 77.24 128.756 77.24Z" fill="white"/>
<path d="M196.756 119.6C193.156 119.6 189.696 119.04 186.376 117.92C183.096 116.8 180.136 115.18 177.496 113.06C174.856 110.98 172.696 108.46 171.016 105.5L184.336 98.9C185.576 101.26 187.316 103 189.556 104.12C191.836 105.28 194.256 105.86 196.816 105.86C199.816 105.86 202.496 105.32 204.856 104.24C207.216 103.2 209.036 101.64 210.316 99.56C211.636 97.52 212.256 94.96 212.176 91.88V73.46H213.976V24.2H226.636V92.12C226.636 93.76 226.556 95.32 226.396 96.8C226.276 98.32 226.056 99.8 225.736 101.24C224.776 105.44 222.936 108.88 220.216 111.56C217.496 114.28 214.116 116.3 210.076 117.62C206.076 118.94 201.636 119.6 196.756 119.6ZM195.496 90.8C189.536 90.8 184.336 89.3 179.896 86.3C175.456 83.3 172.016 79.22 169.576 74.06C167.136 68.9 165.916 63.08 165.916 56.6C165.916 50.04 167.136 44.2 169.576 39.08C172.056 33.92 175.556 29.86 180.076 26.9C184.596 23.9 189.916 22.4 196.036 22.4C202.196 22.4 207.356 23.9 211.516 26.9C215.716 29.86 218.896 33.92 221.056 39.08C223.216 44.24 224.296 50.08 224.296 56.6C224.296 63.04 223.216 68.86 221.056 74.06C218.896 79.22 215.676 83.3 211.396 86.3C207.116 89.3 201.816 90.8 195.496 90.8ZM197.716 77.84C201.596 77.84 204.716 76.96 207.076 75.2C209.476 73.4 211.216 70.9 212.296 67.7C213.416 64.5 213.976 60.8 213.976 56.6C213.976 52.36 213.416 48.66 212.296 45.5C211.216 42.3 209.516 39.82 207.196 38.06C204.876 36.26 201.876 35.36 198.196 35.36C194.316 35.36 191.116 36.32 188.596 38.24C186.076 40.12 184.216 42.68 183.016 45.92C181.816 49.12 181.216 52.68 181.216 56.6C181.216 60.56 181.796 64.16 182.956 67.4C184.156 70.6 185.976 73.14 188.416 75.02C190.856 76.9 193.956 77.84 197.716 77.84Z" fill="white"/>
<path d="M239.861 14.36V8L254.321 1.1V14.36H239.861ZM239.861 89V24.2H254.321V89H239.861Z" fill="white"/>
<path d="M295.634 90.8C288.954 90.8 283.254 89.32 278.534 86.36C273.814 83.36 270.194 79.28 267.674 74.12C265.194 68.96 263.934 63.12 263.894 56.6C263.934 49.96 265.234 44.08 267.794 38.96C270.394 33.8 274.074 29.76 278.834 26.84C283.594 23.88 289.254 22.4 295.814 22.4C303.174 22.4 309.394 24.26 314.474 27.98C319.594 31.66 322.934 36.7 324.494 43.1L310.094 47C308.974 43.52 307.114 40.82 304.514 38.9C301.914 36.94 298.954 35.96 295.634 35.96C291.874 35.96 288.774 36.86 286.334 38.66C283.894 40.42 282.094 42.86 280.934 45.98C279.774 49.1 279.194 52.64 279.194 56.6C279.194 62.76 280.574 67.74 283.334 71.54C286.094 75.34 290.194 77.24 295.634 77.24C299.474 77.24 302.494 76.36 304.694 74.6C306.934 72.84 308.614 70.3 309.734 66.98L324.494 70.28C322.494 76.88 318.994 81.96 313.994 85.52C308.994 89.04 302.874 90.8 295.634 90.8Z" fill="white"/>
<circle cx="341.5" cy="79.5" r="9.5" fill="#FA2121"/>
</svg>
