<svg width="351" height="119" viewBox="0 0 351 119" fill="none" xmlns="http://www.w3.org/2000/svg">
<path d="M0 88.2V1.8H34.26C40.1 1.8 44.88 2.98 48.6 5.34C52.36 7.66 55.14 10.64 56.94 14.28C58.78 17.92 59.7 21.68 59.7 25.56C59.7 30.32 58.56 34.36 56.28 37.68C54.04 41 50.98 43.24 47.1 44.4V41.4C52.54 42.64 56.66 45.22 59.46 49.14C62.3 53.06 63.72 57.52 63.72 62.52C63.72 67.64 62.74 72.12 60.78 75.96C58.82 79.8 55.9 82.8 52.02 84.96C48.18 87.12 43.42 88.2 37.74 88.2H0ZM14.64 74.58H35.94C38.46 74.58 40.72 74.08 42.72 73.08C44.72 72.04 46.28 70.6 47.4 68.76C48.56 66.88 49.14 64.66 49.14 62.1C49.14 59.78 48.64 57.7 47.64 55.86C46.64 54.02 45.18 52.56 43.26 51.48C41.34 50.36 39.04 49.8 36.36 49.8H14.64V74.58ZM14.64 36.3H34.08C36.16 36.3 38.02 35.9 39.66 35.1C41.3 34.3 42.6 33.12 43.56 31.56C44.52 30 45 28.08 45 25.8C45 22.8 44.04 20.3 42.12 18.3C40.2 16.3 37.52 15.3 34.08 15.3H14.64V36.3Z" fill="black"/>
<path d="M72.1031 80.7V0H86.5631V88.2L72.1031 80.7Z" fill="black"/>
<path d="M128.356 90C121.876 90 116.216 88.54 111.376 85.62C106.536 82.7 102.776 78.68 100.096 73.56C97.4559 68.4 96.1359 62.48 96.1359 55.8C96.1359 49 97.4959 43.04 100.216 37.92C102.936 32.8 106.716 28.8 111.556 25.92C116.396 23.04 121.996 21.6 128.356 21.6C134.876 21.6 140.556 23.06 145.396 25.98C150.236 28.9 153.996 32.94 156.676 38.1C159.356 43.22 160.696 49.12 160.696 55.8C160.696 62.52 159.336 68.46 156.616 73.62C153.936 78.74 150.176 82.76 145.336 85.68C140.496 88.56 134.836 90 128.356 90ZM128.356 76.44C134.116 76.44 138.396 74.52 141.196 70.68C143.996 66.84 145.396 61.88 145.396 55.8C145.396 49.52 143.976 44.52 141.136 40.8C138.296 37.04 134.036 35.16 128.356 35.16C124.476 35.16 121.276 36.04 118.756 37.8C116.276 39.52 114.436 41.94 113.236 45.06C112.036 48.14 111.436 51.72 111.436 55.8C111.436 62.08 112.856 67.1 115.696 70.86C118.576 74.58 122.796 76.44 128.356 76.44Z" fill="black"/>
<path d="M196.356 118.8C192.756 118.8 189.296 118.24 185.976 117.12C182.696 116 179.736 114.38 177.096 112.26C174.456 110.18 172.296 107.66 170.616 104.7L183.936 98.1C185.176 100.46 186.916 102.2 189.156 103.32C191.436 104.48 193.856 105.06 196.416 105.06C199.416 105.06 202.096 104.52 204.456 103.44C206.816 102.4 208.636 100.84 209.916 98.76C211.236 96.72 211.856 94.16 211.776 91.08V72.66H213.576V23.4H226.236V91.32C226.236 92.96 226.156 94.52 225.996 96C225.876 97.52 225.656 99 225.336 100.44C224.376 104.64 222.536 108.08 219.816 110.76C217.096 113.48 213.716 115.5 209.676 116.82C205.676 118.14 201.236 118.8 196.356 118.8ZM195.096 90C189.136 90 183.936 88.5 179.496 85.5C175.056 82.5 171.616 78.42 169.176 73.26C166.736 68.1 165.516 62.28 165.516 55.8C165.516 49.24 166.736 43.4 169.176 38.28C171.656 33.12 175.156 29.06 179.676 26.1C184.196 23.1 189.516 21.6 195.636 21.6C201.796 21.6 206.956 23.1 211.116 26.1C215.316 29.06 218.496 33.12 220.656 38.28C222.816 43.44 223.896 49.28 223.896 55.8C223.896 62.24 222.816 68.06 220.656 73.26C218.496 78.42 215.276 82.5 210.996 85.5C206.716 88.5 201.416 90 195.096 90ZM197.316 77.04C201.196 77.04 204.316 76.16 206.676 74.4C209.076 72.6 210.816 70.1 211.896 66.9C213.016 63.7 213.576 60 213.576 55.8C213.576 51.56 213.016 47.86 211.896 44.7C210.816 41.5 209.116 39.02 206.796 37.26C204.476 35.46 201.476 34.56 197.796 34.56C193.916 34.56 190.716 35.52 188.196 37.44C185.676 39.32 183.816 41.88 182.616 45.12C181.416 48.32 180.816 51.88 180.816 55.8C180.816 59.76 181.396 63.36 182.556 66.6C183.756 69.8 185.576 72.34 188.016 74.22C190.456 76.1 193.556 77.04 197.316 77.04Z" fill="black"/>
<path d="M239.461 13.56V7.2L253.921 0.3V13.56H239.461ZM239.461 88.2V23.4H253.921V88.2H239.461Z" fill="black"/>
<path d="M295.234 90C288.554 90 282.854 88.52 278.134 85.56C273.414 82.56 269.794 78.48 267.274 73.32C264.794 68.16 263.534 62.32 263.494 55.8C263.534 49.16 264.834 43.28 267.394 38.16C269.994 33 273.674 28.96 278.434 26.04C283.194 23.08 288.854 21.6 295.414 21.6C302.774 21.6 308.994 23.46 314.074 27.18C319.194 30.86 322.534 35.9 324.094 42.3L309.694 46.2C308.574 42.72 306.714 40.02 304.114 38.1C301.514 36.14 298.554 35.16 295.234 35.16C291.474 35.16 288.374 36.06 285.934 37.86C283.494 39.62 281.694 42.06 280.534 45.18C279.374 48.3 278.794 51.84 278.794 55.8C278.794 61.96 280.174 66.94 282.934 70.74C285.694 74.54 289.794 76.44 295.234 76.44C299.074 76.44 302.094 75.56 304.294 73.8C306.534 72.04 308.214 69.5 309.334 66.18L324.094 69.48C322.094 76.08 318.594 81.16 313.594 84.72C308.594 88.24 302.474 90 295.234 90Z" fill="black"/>
<circle cx="341.1" cy="78.7" r="9.5" fill="#FA2121"/>
</svg>
